<?xml version="1.0" standalone="no"?>
<!DOCTYPE svg PUBLIC "-//W3C//DTD SVG 20010904//EN"
 "http://www.w3.org/TR/2001/REC-SVG-20010904/DTD/svg10.dtd">
<svg version="1.0" xmlns="http://www.w3.org/2000/svg"
 width="1400.000000pt" height="1400.000000pt" viewBox="0 0 1400.000000 1400.000000"
 preserveAspectRatio="xMidYMid meet">
<metadata>
Created by potrace 1.11, written by Peter Selinger 2001-2013
</metadata>
<g transform="translate(0.000000,1400.000000) scale(0.100000,-0.100000)"
fill="#000000" stroke="none">
<path d="M3450 11417 c-3 -2 -25 -7 -50 -10 -125 -16 -263 -92 -386 -212 -137
-135 -201 -257 -227 -431 -9 -62 -12 -1008 -11 -3980 l0 -3899 762 -1 c419 0
763 2 763 5 1 3 3 1336 4 2961 1 1625 3 2957 4 2959 0 2 20 -17 44 -42 68 -72
392 -411 513 -537 61 -63 131 -135 154 -160 23 -25 118 -124 210 -220 92 -96
191 -200 220 -230 29 -30 129 -135 224 -233 94 -99 196 -205 226 -237 30 -32
134 -140 230 -241 96 -100 191 -199 210 -219 19 -20 117 -122 217 -226 99
-104 205 -214 233 -244 28 -30 133 -140 233 -244 100 -104 198 -206 217 -226
19 -20 118 -124 220 -230 102 -106 205 -214 230 -240 25 -26 119 -125 210
-220 91 -95 190 -199 220 -230 186 -194 423 -442 460 -480 23 -25 120 -126
215 -225 95 -99 194 -202 220 -230 26 -27 93 -97 149 -155 134 -140 440 -460
511 -535 167 -176 255 -262 295 -293 47 -36 160 -95 201 -105 121 -30 167 -36
250 -37 53 0 132 7 175 16 288 59 526 306 583 604 7 37 10 1311 11 3983 l0
3927 -27 1 c-16 0 -358 1 -761 2 l-732 2 -1 -55 c0 -30 -1 -1366 -1 -2969 0
-1602 -3 -2909 -7 -2903 -5 8 -258 273 -451 473 -36 37 -141 147 -235 245 -93
97 -195 203 -225 234 -58 60 -125 130 -455 474 -110 115 -225 235 -255 266
-30 31 -138 144 -240 250 -102 106 -214 223 -250 261 -254 264 -415 432 -460
479 -65 68 -415 433 -490 511 -54 56 -358 372 -454 473 -27 28 -129 134 -227
236 -97 102 -205 214 -239 250 -34 36 -148 154 -254 264 -105 109 -213 222
-239 250 -27 28 -135 141 -240 250 -106 110 -241 251 -302 314 -140 147 -168
176 -414 431 -242 251 -301 295 -471 351 -46 16 -100 23 -185 27 -66 3 -122 3
-125 0z"/>
</g>
</svg>
